<svg width="9" height="9" viewBox="0 0 9 9" fill="none" xmlns="http://www.w3.org/2000/svg">
<path d="M8.46 5.4H6.48V3.6H8.46C8.60322 3.6 8.74057 3.54311 8.84184 3.44184C8.94311 3.34057 9 3.20322 9 3.06C9 2.91678 8.94311 2.77943 8.84184 2.67816C8.74057 2.57689 8.60322 2.52 8.46 2.52H6.48V0.54C6.48 0.396783 6.42311 0.259432 6.32184 0.158162C6.22057 0.0568927 6.08322 0 5.94 0C5.79678 0 5.65943 0.0568927 5.55816 0.158162C5.45689 0.259432 5.4 0.396783 5.4 0.54V2.52H3.6V0.54C3.6 0.396783 3.54311 0.259432 3.44184 0.158162C3.34057 0.0568927 3.20322 0 3.06 0C2.91678 0 2.77943 0.0568927 2.67816 0.158162C2.57689 0.259432 2.52 0.396783 2.52 0.54V2.52H0.54C0.396783 2.52 0.259432 2.57689 0.158162 2.67816C0.0568927 2.77943 0 2.91678 0 3.06C0 3.20322 0.0568927 3.34057 0.158162 3.44184C0.259432 3.54311 0.396783 3.6 0.54 3.6H2.52V5.4H0.54C0.396783 5.4 0.259432 5.45689 0.158162 5.55816C0.0568927 5.65943 0 5.79678 0 5.94C0 6.08322 0.0568927 6.22057 0.158162 6.32184C0.259432 6.42311 0.396783 6.48 0.54 6.48H2.52V8.46C2.52 8.60322 2.57689 8.74057 2.67816 8.84184C2.77943 8.94311 2.91678 9 3.06 9C3.20322 9 3.34057 8.94311 3.44184 8.84184C3.54311 8.74057 3.6 8.60322 3.6 8.46V6.48H5.4V8.46C5.4 8.60322 5.45689 8.74057 5.55816 8.84184C5.65943 8.94311 5.79678 9 5.94 9C6.08322 9 6.22057 8.94311 6.32184 8.84184C6.42311 8.74057 6.48 8.60322 6.48 8.46V6.48H8.46C8.60322 6.48 8.74057 6.42311 8.84184 6.32184C8.94311 6.22057 9 6.08322 9 5.94C9 5.79678 8.94311 5.65943 8.84184 5.55816C8.74057 5.45689 8.60322 5.4 8.46 5.4ZM3.6 5.4V3.6H5.4V5.4H3.6Z" fill="#15B2E5"/>
</svg>
