<svg width="12" height="7" viewBox="0 0 12 7" fill="none" xmlns="http://www.w3.org/2000/svg">
<path d="M11.1671 0.141704L5.99947 5.17903L0.831869 0.141704C0.739541 0.0515216 0.615598 0.00103386 0.486534 0.00103386C0.357471 0.00103386 0.233529 0.0515216 0.141201 0.141704C0.0964956 0.185506 0.06098 0.237787 0.0367343 0.295487C0.0124885 0.353187 0 0.415145 0 0.477732C0 0.540319 0.0124885 0.602277 0.0367343 0.659977C0.06098 0.717677 0.0964956 0.769959 0.141201 0.81376L5.63863 6.17367C5.73517 6.26778 5.86465 6.32044 5.99947 6.32044C6.13429 6.32044 6.26377 6.26778 6.36031 6.17367L11.8577 0.814795C11.9028 0.77096 11.9385 0.71855 11.963 0.660659C11.9874 0.602767 12 0.540568 12 0.477732C12 0.414896 11.9874 0.352696 11.963 0.294805C11.9385 0.236914 11.9028 0.184504 11.8577 0.140669C11.7654 0.0504872 11.6415 0 11.5124 0C11.3833 0 11.2594 0.0504872 11.1671 0.140669V0.141704Z" fill="#4A1C00"/>
</svg>
