<svg width="269" height="269" viewBox="0 0 269 269" fill="none" xmlns="http://www.w3.org/2000/svg">
<path fill-rule="evenodd" clip-rule="evenodd" d="M130.297 37.1052V48.0081L99.6393 65.7117L89.4425 48.0585C92.8218 44.1076 93.5195 38.3073 90.7791 33.5578C87.2989 27.5305 79.582 25.4625 73.5547 28.9427C67.5274 32.4229 65.4595 40.1398 68.9397 46.1671C71.6801 50.9167 77.0601 53.2032 82.1627 52.2617L92.3595 69.9148L61.7019 87.6183L52.2617 82.1627C53.2032 77.0601 50.9167 71.6801 46.1671 68.9397C40.1398 65.4595 32.4229 67.5274 28.9427 73.5547C25.4625 79.582 27.5305 87.2989 33.5578 90.7791C38.3073 93.5195 44.1076 92.8218 48.0585 89.4425L57.4988 94.8982V130.297H37.1052C35.3735 125.404 30.708 121.891 25.2188 121.891C18.2584 121.891 12.6094 127.54 12.6094 134.5C12.6094 141.46 18.2584 147.109 25.2188 147.109C30.708 147.109 35.3735 143.596 37.1052 138.703H57.4988V174.102L48.0585 179.558C44.1076 176.178 38.3073 175.48 33.5578 178.221C27.5305 181.701 25.4625 189.418 28.9427 195.445C32.4229 201.473 40.1398 203.541 46.1671 200.06C50.9167 197.32 53.2032 191.94 52.2617 186.837L61.7019 181.382L92.3595 199.085L82.1627 216.738C77.0601 215.797 71.6801 218.083 68.9397 222.833C65.4595 228.86 67.5274 236.577 73.5547 240.057C79.582 243.537 87.2989 241.47 90.7791 235.442C93.5195 230.693 92.8218 224.892 89.4425 220.941L99.6393 203.288L130.297 220.992V231.895C125.404 233.627 121.891 238.292 121.891 243.781C121.891 250.742 127.54 256.391 134.5 256.391C141.46 256.391 147.109 250.742 147.109 243.781C147.109 238.292 143.596 233.627 138.703 231.895V220.992L169.361 203.288L179.558 220.941C176.178 224.892 175.48 230.693 178.221 235.442C181.701 241.47 189.418 243.537 195.445 240.057C201.473 236.577 203.541 228.86 200.06 222.833C197.32 218.083 191.94 215.797 186.837 216.738L176.641 199.085L207.298 181.382L216.738 186.837C215.797 191.94 218.083 197.32 222.833 200.06C228.86 203.541 236.577 201.473 240.057 195.445C243.537 189.418 241.47 181.701 235.442 178.221C230.693 175.48 224.892 176.178 220.941 179.558L211.501 174.102V138.703H231.895C233.627 143.596 238.292 147.109 243.781 147.109C250.742 147.109 256.391 141.46 256.391 134.5C256.391 127.54 250.742 121.891 243.781 121.891C238.292 121.891 233.627 125.404 231.895 130.297H211.501V94.8982L220.941 89.4425C224.892 92.8218 230.693 93.5195 235.442 90.7791C241.47 87.2989 243.537 79.582 240.057 73.5547C236.577 67.5274 228.86 65.4595 222.833 68.9397C218.083 71.6801 215.797 77.0601 216.738 82.1627L207.298 87.6183L176.641 69.9148L186.837 52.2617C191.94 53.2032 197.32 50.9167 200.06 46.1671C203.541 40.1398 201.473 32.4229 195.445 28.9427C189.418 25.4625 181.701 27.5305 178.221 33.5578C175.48 38.3073 176.178 44.1076 179.558 48.0585L169.361 65.7117L138.703 48.0081V37.1052C143.596 35.3735 147.109 30.708 147.109 25.2188C147.109 18.2584 141.46 12.6094 134.5 12.6094C127.54 12.6094 121.891 18.2584 121.891 25.2188C121.891 30.708 125.404 35.3735 130.297 37.1052ZM134.5 247.984C132.18 247.984 130.297 246.101 130.297 243.781C130.297 241.461 132.18 239.578 134.5 239.578C136.82 239.578 138.703 241.461 138.703 243.781C138.703 246.101 136.82 247.984 134.5 247.984ZM192.781 227.036C193.941 229.045 193.251 231.617 191.242 232.777C189.233 233.938 186.661 233.248 185.501 231.239C184.341 229.23 185.03 226.658 187.039 225.498C189.048 224.338 191.62 225.027 192.781 227.036ZM76.2195 227.036C77.3795 225.027 79.9518 224.338 81.9609 225.498C83.97 226.658 84.6593 229.23 83.4993 231.239C82.3392 233.248 79.7669 233.938 77.7578 232.777C75.7487 231.617 75.0594 229.045 76.2195 227.036ZM134.5 55.2879L203.095 94.8982V174.102L134.5 213.712L65.905 174.102V94.8982L134.5 55.2879ZM136.602 63.6101C135.299 62.8619 133.701 62.8619 132.398 63.6101L74.1599 97.2351C72.857 97.9833 72.0584 99.3703 72.0584 100.875V168.125C72.0584 169.63 72.857 171.017 74.1599 171.765L132.398 205.39C133.701 206.138 135.299 206.138 136.602 205.39L194.84 171.765C196.143 171.017 196.942 169.63 196.942 168.125V100.875C196.942 99.3703 196.143 97.9833 194.84 97.2351L136.602 63.6101ZM232.777 191.242C231.617 193.251 229.045 193.941 227.036 192.781C225.027 191.62 224.338 189.048 225.498 187.039C226.658 185.03 229.23 184.341 231.239 185.501C233.248 186.661 233.938 189.233 232.777 191.242ZM36.2225 191.242C35.0625 189.233 35.7518 186.661 37.7609 185.501C39.77 184.341 42.3423 185.03 43.5023 187.039C44.6624 189.048 43.9731 191.62 41.964 192.781C39.9549 193.941 37.3826 193.251 36.2225 191.242ZM96.6719 151.312V135.492L105.524 153.196C106.39 154.936 108.348 155.852 110.248 155.406C112.148 154.952 113.484 153.263 113.484 151.312V117.688C113.484 115.367 111.601 113.484 109.281 113.484C106.961 113.484 105.078 115.367 105.078 117.688V133.508L96.2263 115.804C95.3605 114.064 93.4018 113.148 91.502 113.594C89.6022 114.048 88.2656 115.737 88.2656 117.688V151.312C88.2656 153.633 90.1486 155.516 92.4688 155.516C94.7889 155.516 96.6719 153.633 96.6719 151.312ZM163.922 121.891V151.312C163.922 153.633 165.805 155.516 168.125 155.516C170.445 155.516 172.328 153.633 172.328 151.312V121.891H176.531C178.851 121.891 180.734 120.008 180.734 117.688C180.734 115.367 178.851 113.484 176.531 113.484H159.719C157.399 113.484 155.516 115.367 155.516 117.688C155.516 120.008 157.399 121.891 159.719 121.891H163.922ZM130.297 138.703H134.5C136.82 138.703 138.703 136.82 138.703 134.5C138.703 132.18 136.82 130.297 134.5 130.297H130.297V121.891H142.906C145.226 121.891 147.109 120.008 147.109 117.688C147.109 115.367 145.226 113.484 142.906 113.484H126.094C123.774 113.484 121.891 115.367 121.891 117.688V151.312C121.891 153.633 123.774 155.516 126.094 155.516C128.414 155.516 130.297 153.633 130.297 151.312V138.703ZM25.2188 130.297C27.5389 130.297 29.4219 132.18 29.4219 134.5C29.4219 136.82 27.5389 138.703 25.2188 138.703C22.8986 138.703 21.0156 136.82 21.0156 134.5C21.0156 132.18 22.8986 130.297 25.2188 130.297ZM243.781 130.297C246.101 130.297 247.984 132.18 247.984 134.5C247.984 136.82 246.101 138.703 243.781 138.703C241.461 138.703 239.578 136.82 239.578 134.5C239.578 132.18 241.461 130.297 243.781 130.297ZM36.2225 77.7578C37.3826 75.7487 39.9549 75.0594 41.964 76.2195C43.9731 77.3795 44.6624 79.9518 43.5023 81.9609C42.3423 83.97 39.77 84.6593 37.7609 83.4993C35.7518 82.3392 35.0625 79.7669 36.2225 77.7578ZM232.777 77.7578C233.938 79.7669 233.248 82.3392 231.239 83.4993C229.23 84.6593 226.658 83.97 225.498 81.9609C224.338 79.9518 225.027 77.3795 227.036 76.2195C229.045 75.0594 231.617 75.7487 232.777 77.7578ZM83.4993 37.7609C84.6593 39.77 83.97 42.3423 81.9609 43.5023C79.9518 44.6624 77.3795 43.9731 76.2195 41.964C75.0594 39.9549 75.7487 37.3826 77.7578 36.2225C79.7669 35.0625 82.3392 35.7518 83.4993 37.7609ZM185.501 37.7609C186.661 35.7518 189.233 35.0625 191.242 36.2225C193.251 37.3826 193.941 39.9549 192.781 41.964C191.62 43.9731 189.048 44.6624 187.039 43.5023C185.03 42.3423 184.341 39.77 185.501 37.7609ZM134.5 21.0156C136.82 21.0156 138.703 22.8986 138.703 25.2188C138.703 27.5389 136.82 29.4219 134.5 29.4219C132.18 29.4219 130.297 27.5389 130.297 25.2188C130.297 22.8986 132.18 21.0156 134.5 21.0156Z" fill="black"/>
</svg>
